# xmcd
#
# Track frame offsets:
#	150
#	21467
#	39723
#	54184
#	71931
#	83879
#	98277
#	119314
#	132585
#	147978
#	167480
#	185687
#	203416
#	215905
#
# Disc length: 3200 seconds
#
# Revision: 2
# Processed by: cddbd v1.5.1PL2 Copyright (c) Steve Scherf et al.
# Submitted via: audiograbber 1.83.01
#
DISCID=cd0c7e0e
DTITLE=Engelbert Humperdinck - Love is all CD3
DYEAR=1998
DGENRE=Love songs
TTITLE0=Just the way you are
TTITLE1=Can't help falling in love
TTITLE2=I'm stone in love with you
TTITLE3=A much greater love
TTITLE4=Let's kiss tomorrow goodby
TTITLE5=Just say I love her
TTITLE6=Those ware the days
TTITLE7=Funny familiar forgotten feelings
TTITLE8=You light up my life
TTITLE9=What i did for love
TTITLE10=Love me tender
TTITLE11=And the day begins
TTITLE12=Here you come again
TTITLE13=Golden live medley
EXTD=
EXTT0=
EXTT1=
EXTT2=
EXTT3=
EXTT4=
EXTT5=
EXTT6=
EXTT7=
EXTT8=
EXTT9=
EXTT10=
EXTT11=
EXTT12=
EXTT13=Am I that easy to forget - There goes my everything - The last waltz - T
EXTT13=he way it used to be - When there's no you - Les bicyclettes de belize
PLAYORDER=
